<svg width="14" height="14" viewBox="0 0 14 14" fill="none" xmlns="http://www.w3.org/2000/svg">
<path d="M9.14286 9.14286L13 13M5.71429 10.4286C8.31791 10.4286 10.4286 8.31791 10.4286 5.71429C10.4286 3.11066 8.31791 1 5.71429 1C3.11066 1 1 3.11066 1 5.71429C1 8.31791 3.11066 10.4286 5.71429 10.4286Z" stroke="white" stroke-width="2"/>
<path d="M9.14286 9.14286L13 13M5.71429 10.4286C8.31791 10.4286 10.4286 8.31791 10.4286 5.71429C10.4286 3.11066 8.31791 1 5.71429 1C3.11066 1 1 3.11066 1 5.71429C1 8.31791 3.11066 10.4286 5.71429 10.4286Z" stroke="white" stroke-width="2"/>
</svg>
