<svg width="26" height="22" viewBox="0 0 26 22" fill="none" xmlns="http://www.w3.org/2000/svg">
<path d="M20.2 1H5.8C3.14903 1 1 3.14903 1 5.8L13.6545 10.2L25 5.8C25 3.14903 22.851 1 20.2 1Z" fill="#1B1A1A"/>
<path d="M1 16V8.5L13.6545 13L25 8.5V16C25 18.7614 22.7614 21 20 21H6C3.23858 21 1 18.7614 1 16Z" fill="#1B1A1A"/>
<path d="M20.2 1H5.8C3.14903 1 1 3.14903 1 5.8L13.6545 10.2L25 5.8C25 3.14903 22.851 1 20.2 1Z" stroke="black"/>
<path d="M1 16V8.5L13.6545 13L25 8.5V16C25 18.7614 22.7614 21 20 21H6C3.23858 21 1 18.7614 1 16Z" stroke="black"/>
</svg>
